<svg width="26" height="26" viewBox="0 0 26 26" fill="none" xmlns="http://www.w3.org/2000/svg">
<path d="M22.8258 5.66616C21.0816 5.49283 19.3375 5.36283 17.5825 5.26533V5.25449L17.3441 3.84616C17.1816 2.84949 16.9433 1.35449 14.4083 1.35449H11.57C9.0458 1.35449 8.80747 2.78449 8.63413 3.83533L8.40663 5.22199C7.39913 5.28699 6.39163 5.35199 5.38413 5.44949L3.17413 5.66616C2.71913 5.70949 2.39413 6.11033 2.43747 6.55449C2.4808 6.99866 2.8708 7.32366 3.3258 7.28033L5.5358 7.06366C11.2125 6.50033 16.9325 6.71699 22.6741 7.29116C22.7066 7.29116 22.7283 7.29116 22.7608 7.29116C23.1725 7.29116 23.53 6.97699 23.5733 6.55449C23.6058 6.11033 23.2808 5.70949 22.8258 5.66616Z" fill="#2F620B"/>
<path d="M20.8324 8.81801C20.5724 8.54717 20.2149 8.39551 19.8466 8.39551H6.15322C5.78489 8.39551 5.41656 8.54717 5.16739 8.81801C4.91822 9.08884 4.77739 9.45717 4.79906 9.83634L5.47073 20.9513C5.58989 22.598 5.74156 24.6563 9.52239 24.6563H16.4774C20.2582 24.6563 20.4099 22.6088 20.5291 20.9513L21.2007 9.84717C21.2224 9.45717 21.0816 9.08884 20.8324 8.81801ZM14.7982 19.2288H11.1907C10.7466 19.2288 10.3782 18.8605 10.3782 18.4163C10.3782 17.9722 10.7466 17.6038 11.1907 17.6038H14.7982C15.2424 17.6038 15.6107 17.9722 15.6107 18.4163C15.6107 18.8605 15.2424 19.2288 14.7982 19.2288ZM15.7082 14.8955H10.2916C9.84739 14.8955 9.47906 14.5272 9.47906 14.083C9.47906 13.6388 9.84739 13.2705 10.2916 13.2705H15.7082C16.1524 13.2705 16.5207 13.6388 16.5207 14.083C16.5207 14.5272 16.1524 14.8955 15.7082 14.8955Z" fill="#2F620B"/>
</svg>
